<svg width="1080" height="1080" viewBox="0 0 1080 1080" fill="none" xmlns="http://www.w3.org/2000/svg">
<g clip-path="url(#clip0_436_1059)">
<rect width="1080" height="1080" rx="123" fill="url(#paint0_linear_436_1059)"/>
<path d="M302.89 1137.03C270.603 1128.38 258.687 1108.27 267.141 1076.72C275.891 1044.07 312.43 1027.31 376.757 1026.46C548.524 1025.29 677.315 1001.8 763.131 955.977C856.855 905.587 920.282 818.569 953.413 694.923C971.306 628.146 979.127 574.008 976.877 532.507C974.993 491.105 970.128 457.162 962.281 430.678C954.899 403.926 943.38 379.407 927.722 357.123C894.233 310.398 844.65 278.236 778.974 260.638C650.925 226.328 550.738 269.284 478.414 389.507C454.043 430.559 433.698 481.539 417.378 542.444C379.037 685.537 390.927 789.393 453.047 854.014C468.076 869.839 487.39 882.879 510.989 893.135C518.104 897.401 522.366 904.245 523.774 913.666C526.347 930.479 524.794 940.68 519.113 944.27C507.286 951.719 487.161 951.242 458.74 942.84C430.783 934.169 405.461 922.272 382.772 907.148C360.084 892.024 340.299 874.139 323.416 853.492C306.533 832.845 292.724 810.269 281.987 785.764C271.25 761.259 263.488 735.191 258.701 707.561C248.957 651.468 251.704 594.987 266.942 538.117C282.18 481.247 301.568 432.371 325.107 391.489C349.11 350.338 376.006 315.27 405.794 286.287C436.047 257.035 468.507 233.486 503.175 215.642C538.309 197.529 574.231 184.542 610.943 176.683C683.265 160.67 750.98 161.118 814.087 178.027C877.194 194.937 929.539 218.991 971.122 250.188C1013.17 281.117 1046.77 318.63 1071.92 362.727C1126.61 457.998 1137.39 567.456 1104.26 691.103C1056.09 870.885 952.644 989.847 793.924 1047.99C728.199 1071.67 654.082 1084.84 571.572 1087.51L618.252 1122.43C677.78 1165.91 725.338 1192.42 760.928 1201.95C844.949 1224.46 908.792 1219.55 952.457 1187.21C965.128 1189.82 973.403 1196.36 977.281 1206.83C981.06 1217.68 980.984 1230.44 977.051 1245.11C973.119 1259.79 963.988 1274.06 949.657 1287.91C935.228 1302.14 917.354 1313.08 896.033 1320.73C849.768 1337.83 797.65 1338.61 739.679 1323.08C702.989 1313.25 668.851 1296.83 637.266 1273.81C605.582 1251.17 580.929 1232.37 563.305 1217.42L510.798 1175.63C472.15 1145.22 443.104 1127.41 423.658 1122.2C404.579 1117.09 389.192 1114.34 377.497 1113.96C365.801 1113.58 355.56 1114.37 346.774 1116.34C335.491 1118.83 320.863 1125.72 302.89 1137.03Z" fill="white"/>
<path fill-rule="evenodd" clip-rule="evenodd" d="M481.646 487.887C474.024 508.287 466.958 530.531 460.49 554.669C445.896 609.136 439.458 655.833 440.117 695.253C441.097 753.802 457.569 794.788 485.152 823.482L485.193 823.525L485.261 823.594L485.326 823.663L485.34 823.679L486.308 824.682C487.31 825.707 488.207 826.633 489.041 827.494C496.635 835.33 498.959 837.727 526.257 859.377L561.253 881.315C599.526 901.196 640.242 912.359 685.634 912.722L687.901 912.731L690.707 912.717L693.316 912.679C743.706 911.714 791.763 888.646 825.203 850.939C862.113 809.318 890.278 755.12 908.963 686.775L909.634 684.302L909.744 683.891C925.839 623.824 932.609 577.438 932.018 543.374C889.236 563.208 842.508 577.848 791.746 579.787C724.87 582.324 656.539 553.708 599.988 530.025L597.969 529.18L595.018 527.946C552.315 510.071 515.377 494.886 481.646 487.887ZM674.078 793.04C690.233 793.04 703.329 779.944 703.329 763.789C703.329 747.634 690.233 734.538 674.078 734.538C657.923 734.538 644.827 747.634 644.827 763.789C644.827 779.944 657.923 793.04 674.078 793.04ZM588.415 683.349C588.415 692.581 580.931 700.064 571.7 700.064C562.469 700.064 554.985 692.581 554.985 683.349C554.985 674.118 562.469 666.634 571.7 666.634C580.931 666.634 588.415 674.118 588.415 683.349Z" fill="white"/>
<circle cx="787.426" cy="472.848" r="50.6668" fill="white"/>
<circle cx="706.463" cy="376.214" r="18.8042" fill="white"/>
<circle cx="635.425" cy="472.848" r="25.0722" fill="white"/>
</g>
<defs>
<linearGradient id="paint0_linear_436_1059" x1="-7.73983e-06" y1="129" x2="1170.5" y2="1080" gradientUnits="userSpaceOnUse">
<stop stop-color="#ED5760"/>
<stop offset="1" stop-color="#B0000B"/>
</linearGradient>
<clipPath id="clip0_436_1059">
<rect width="1080" height="1080" rx="123" fill="white"/>
</clipPath>
</defs>
</svg>
