<svg width="4871" height="1080" viewBox="0 0 4871 1080" fill="none" xmlns="http://www.w3.org/2000/svg">
<g clip-path="url(#clip0_436_1042)">
<rect width="1080" height="1080" rx="123" fill="url(#paint0_linear_436_1042)"/>
<path d="M302.89 1137.03C270.603 1128.38 258.687 1108.27 267.141 1076.72C275.891 1044.07 312.43 1027.31 376.757 1026.46C548.524 1025.29 677.315 1001.8 763.131 955.977C856.855 905.587 920.282 818.569 953.413 694.923C971.306 628.146 979.127 574.008 976.877 532.507C974.993 491.105 970.128 457.162 962.281 430.678C954.899 403.926 943.38 379.407 927.722 357.123C894.233 310.398 844.65 278.236 778.974 260.638C650.925 226.328 550.738 269.284 478.414 389.507C454.043 430.559 433.698 481.539 417.378 542.444C379.037 685.537 390.927 789.393 453.047 854.014C468.076 869.839 487.39 882.879 510.989 893.135C518.104 897.401 522.366 904.245 523.774 913.666C526.347 930.479 524.794 940.68 519.113 944.27C507.286 951.719 487.161 951.242 458.74 942.84C430.783 934.169 405.461 922.272 382.772 907.148C360.084 892.024 340.299 874.139 323.416 853.492C306.533 832.845 292.724 810.269 281.987 785.764C271.25 761.259 263.488 735.191 258.701 707.561C248.957 651.468 251.704 594.987 266.942 538.117C282.18 481.247 301.568 432.371 325.107 391.489C349.11 350.338 376.006 315.27 405.794 286.287C436.047 257.035 468.507 233.486 503.175 215.642C538.309 197.529 574.231 184.542 610.943 176.683C683.265 160.67 750.98 161.118 814.087 178.027C877.194 194.937 929.539 218.991 971.122 250.188C1013.17 281.117 1046.77 318.63 1071.92 362.727C1126.61 457.998 1137.39 567.456 1104.26 691.103C1056.09 870.885 952.644 989.847 793.924 1047.99C728.199 1071.67 654.082 1084.84 571.572 1087.51L618.252 1122.43C677.78 1165.91 725.338 1192.42 760.928 1201.95C844.949 1224.46 908.792 1219.55 952.457 1187.21C965.128 1189.82 973.403 1196.36 977.281 1206.83C981.06 1217.68 980.984 1230.44 977.051 1245.11C973.119 1259.79 963.988 1274.06 949.657 1287.91C935.228 1302.14 917.354 1313.08 896.033 1320.73C849.768 1337.83 797.65 1338.61 739.679 1323.08C702.989 1313.25 668.851 1296.83 637.266 1273.81C605.582 1251.17 580.929 1232.37 563.305 1217.42L510.798 1175.63C472.15 1145.22 443.104 1127.41 423.658 1122.2C404.579 1117.09 389.192 1114.34 377.497 1113.96C365.801 1113.58 355.56 1114.37 346.774 1116.34C335.491 1118.83 320.863 1125.72 302.89 1137.03Z" fill="white"/>
<path fill-rule="evenodd" clip-rule="evenodd" d="M481.646 487.887C474.024 508.287 466.958 530.531 460.49 554.669C445.896 609.136 439.458 655.833 440.117 695.253C441.097 753.802 457.569 794.788 485.152 823.482L485.193 823.525L485.261 823.594L485.326 823.663L485.34 823.679L486.308 824.682C487.31 825.707 488.207 826.633 489.041 827.494C496.635 835.33 498.959 837.727 526.257 859.377L561.253 881.315C599.526 901.196 640.242 912.359 685.634 912.722L687.901 912.731L690.707 912.717L693.316 912.679C743.706 911.714 791.763 888.646 825.203 850.939C862.113 809.318 890.278 755.12 908.963 686.775L909.634 684.302L909.744 683.891C925.839 623.824 932.609 577.438 932.018 543.374C889.236 563.208 842.508 577.848 791.746 579.787C724.87 582.324 656.539 553.708 599.988 530.025L597.969 529.18L595.018 527.946C552.315 510.071 515.377 494.886 481.646 487.887ZM674.078 793.04C690.233 793.04 703.329 779.944 703.329 763.789C703.329 747.634 690.233 734.538 674.078 734.538C657.923 734.538 644.827 747.634 644.827 763.789C644.827 779.944 657.923 793.04 674.078 793.04ZM588.415 683.349C588.415 692.581 580.931 700.064 571.7 700.064C562.469 700.064 554.985 692.581 554.985 683.349C554.985 674.118 562.469 666.634 571.7 666.634C580.931 666.634 588.415 674.118 588.415 683.349Z" fill="white"/>
<circle cx="787.426" cy="472.848" r="50.6668" fill="white"/>
<circle cx="706.463" cy="376.214" r="18.8042" fill="white"/>
<circle cx="635.425" cy="472.848" r="25.0722" fill="white"/>
</g>
<path d="M1956.98 327.357C1987.77 355.507 2012.11 389.522 2030 429.401C2048.18 469.28 2057.27 514.73 2057.27 565.752C2057.27 638.18 2039.09 701.811 2002.73 756.645C1966.66 811.478 1915.49 850.918 1849.22 874.963C1850.1 909.857 1860.66 940.059 1880.89 965.57C1901.12 991.081 1925.02 1003.84 1952.59 1003.84C1969.59 1003.84 1984.4 1002.81 1997.01 1000.76C2009.91 998.705 2021.49 996.359 2031.76 993.72V1032.43C2015.04 1039.46 1990.27 1046.5 1957.42 1053.54C1924.58 1060.87 1890.13 1064.54 1854.06 1064.54C1804.8 1064.54 1764.19 1049.73 1732.22 1020.11C1700.56 990.788 1682.82 949.736 1679 896.955C1637.36 892.849 1598.66 882.586 1562.88 866.166C1527.11 849.745 1495.59 827.606 1468.32 799.749C1441.63 772.186 1420.37 739.491 1404.54 701.664C1389 663.838 1381.23 622.199 1381.23 576.748C1381.23 525.727 1389.88 479.543 1407.18 438.198C1424.77 396.559 1448.82 360.932 1479.31 331.316C1509.52 302.286 1545.29 280.001 1586.64 264.459C1628.27 248.625 1672.55 240.708 1719.47 240.708C1766.09 240.708 1809.78 248.332 1850.54 263.58C1891.59 278.828 1927.07 300.087 1956.98 327.357ZM1843.94 773.798C1857.14 747.115 1866.67 716.912 1872.53 683.191C1878.4 649.469 1881.33 611.349 1881.33 568.831C1881.33 532.764 1878.69 497.723 1873.41 463.709C1868.43 429.401 1859.78 398.905 1847.46 372.221C1834.85 345.537 1818.14 324.132 1797.32 308.004C1776.5 291.876 1750.55 283.813 1719.47 283.813C1666.39 283.813 1626.08 309.03 1598.51 359.466C1570.95 409.608 1557.17 480.569 1557.17 572.35C1557.17 611.349 1560.1 648.15 1565.96 682.751C1572.12 717.352 1581.65 747.554 1594.55 773.359C1607.75 799.456 1624.46 819.835 1644.7 834.497C1664.93 848.865 1689.85 856.049 1719.47 856.049C1748.5 856.049 1773.42 848.718 1794.24 834.057C1815.06 819.396 1831.63 799.309 1843.94 773.798ZM2679.44 872.763L2469.63 885.519L2463.03 879.361V821.741H2460.39C2450.42 830.832 2440.6 839.775 2430.92 848.572C2421.54 857.076 2410.25 864.846 2397.06 871.884C2382.1 879.801 2367.88 885.665 2354.39 889.477C2341.2 893.289 2321.84 895.195 2296.33 895.195C2252.06 895.195 2218.04 881.853 2194.29 855.17C2170.83 828.486 2159.1 790.806 2159.1 742.13V544.2C2159.1 532.764 2156.9 523.527 2152.5 516.49C2148.11 509.159 2142.24 502.708 2134.91 497.137C2129.05 492.738 2121.42 489.659 2112.04 487.9C2102.65 485.847 2094.15 484.528 2086.53 483.941V451.833L2299.85 440.397L2304.69 446.995V739.491C2304.69 769.693 2310.41 791.979 2321.84 806.347C2333.57 820.715 2349.55 827.899 2369.79 827.899C2390.61 827.899 2409.23 822.474 2425.65 811.625C2442.36 800.776 2454.53 789.193 2462.15 776.877V539.802C2462.15 529.832 2460.25 520.888 2456.44 512.971C2452.62 505.054 2447.05 498.603 2439.72 493.618C2434.44 490.099 2426.82 487.753 2416.85 486.58C2407.17 485.408 2397.2 484.528 2386.94 483.941V451.833L2600.26 440.397L2606.86 446.995V786.554C2606.86 796.817 2608.91 805.614 2613.02 812.945C2617.13 819.982 2623.14 825.993 2631.05 830.978C2636.63 834.497 2643.81 836.989 2652.61 838.455C2661.7 839.628 2670.64 840.361 2679.44 840.655V872.763ZM2984.04 882H2706.06V849.891C2713.68 849.305 2721.16 848.572 2728.49 847.692C2735.82 846.813 2742.12 845.346 2747.4 843.294C2756.78 839.775 2763.38 834.79 2767.19 828.339C2771.01 821.595 2772.91 812.798 2772.91 801.948V545.959C2772.91 535.696 2770.57 526.753 2765.87 519.129C2761.18 511.212 2755.32 504.907 2748.28 500.216C2743 496.697 2734.94 493.325 2724.09 490.099C2713.53 486.874 2703.86 484.821 2695.06 483.941V451.833L2910.58 440.397L2917.18 446.995V796.23C2917.18 806.493 2919.38 815.29 2923.78 822.621C2928.18 829.659 2934.48 834.937 2942.69 838.455C2948.56 841.095 2955.01 843.44 2962.04 845.493C2969.08 847.546 2976.41 849.012 2984.04 849.891V882ZM2919.82 282.053C2919.82 304.339 2911.17 323.398 2893.87 339.233C2876.86 354.774 2856.63 362.545 2833.17 362.545C2809.42 362.545 2788.89 354.774 2771.59 339.233C2754.59 323.398 2746.08 304.339 2746.08 282.053C2746.08 259.768 2754.59 240.708 2771.59 224.873C2788.89 209.039 2809.42 201.122 2833.17 201.122C2856.92 201.122 2877.3 209.039 2894.31 224.873C2911.32 240.708 2919.82 259.768 2919.82 282.053ZM3266.65 896.075C3225.89 896.075 3189.82 890.21 3158.44 878.481C3127.36 866.459 3101.7 850.185 3081.47 829.659C3061.24 808.839 3046.14 784.208 3036.17 755.765C3026.2 727.322 3021.21 696.386 3021.21 662.958C3021.21 632.462 3027.22 603.432 3039.25 575.869C3051.56 548.305 3068.13 524.114 3088.95 503.295C3110.35 481.889 3136.89 464.882 3168.56 452.273C3200.52 439.371 3235.71 432.92 3274.12 432.92C3328.08 432.92 3370.74 443.183 3402.12 463.709C3433.49 483.941 3449.18 511.358 3449.18 545.959C3449.18 567.072 3443.61 584.079 3432.47 596.981C3421.32 609.883 3402.12 616.334 3374.85 616.334C3352.85 616.334 3334.38 611.056 3319.43 600.5C3304.77 589.944 3297.43 576.162 3297.43 559.155C3297.43 544.786 3299.78 530.565 3304.47 516.49C3309.16 502.415 3311.95 491.712 3312.83 484.381C3309.6 479.103 3305.5 475.145 3300.51 472.505C3295.53 469.573 3287.76 468.107 3277.2 468.107C3264.01 468.107 3251.98 471.186 3241.13 477.344C3230.29 483.502 3220.17 494.351 3210.79 509.892C3201.7 524.554 3194.36 544.2 3188.79 568.831C3183.52 593.463 3180.88 623.079 3180.88 657.68C3180.88 709.874 3193.04 751.953 3217.38 783.915C3242.01 815.877 3271.34 831.858 3305.35 831.858C3337.9 831.858 3363.7 824.674 3382.76 810.305C3402.12 795.644 3419.27 774.971 3434.23 748.288L3467.21 771.159C3458.12 789.046 3447.27 805.467 3434.67 820.422C3422.06 835.083 3406.96 848.132 3389.36 859.568C3370.89 871.59 3352.12 880.68 3333.06 886.838C3314 892.996 3291.86 896.075 3266.65 896.075ZM3752.9 882H3477.12V849.891C3484.74 849.305 3492.07 848.572 3499.11 847.692C3506.44 846.813 3512.89 845.346 3518.46 843.294C3527.85 839.775 3534.15 834.79 3537.38 828.339C3540.9 821.595 3542.66 812.798 3542.66 801.948V314.602C3542.66 303.459 3540.31 293.196 3535.62 283.813C3531.22 274.136 3525.21 266.805 3517.59 261.82C3511.72 258.008 3502.78 254.343 3490.75 250.824C3479.03 247.305 3468.62 245.253 3459.53 244.666V212.558L3680.77 201.122L3687.36 208.159V796.23C3687.36 807.08 3689.27 815.877 3693.08 822.621C3696.89 829.365 3703.05 834.643 3711.56 838.455C3717.42 841.095 3723.58 843.44 3730.03 845.493C3736.48 847.546 3744.1 849.012 3752.9 849.891V882ZM4289.3 872.763C4276.4 878.335 4261.15 883.466 4243.56 888.158C4225.96 892.849 4207.34 895.195 4187.7 895.195C4151.63 895.195 4125.09 889.917 4108.08 879.361C4091.08 868.511 4079.49 853.117 4073.34 833.177H4070.7C4060.73 843.147 4051.05 851.651 4041.67 858.688C4032.58 865.726 4022.75 871.737 4012.2 876.722C3998.42 883.173 3985.07 887.865 3972.17 890.797C3959.56 894.022 3941.82 895.635 3918.95 895.635C3884.94 895.635 3855.91 885.665 3831.86 865.726C3807.82 845.493 3795.8 818.809 3795.8 785.674C3795.8 766.614 3798.43 750.487 3803.71 737.291C3808.99 723.803 3816.47 711.927 3826.14 701.664C3834.94 692.281 3845.06 684.51 3856.49 678.352C3868.22 672.195 3880.98 666.477 3894.76 661.198C3921.15 651.522 3952.82 641.552 3989.77 631.289C4026.71 620.733 4053.69 611.349 4070.7 603.139V560.914C4070.7 553.583 4070.11 543.907 4068.94 531.884C4067.77 519.862 4065.27 509.746 4061.46 501.535C4057.36 492.152 4050.9 484.235 4042.11 477.784C4033.31 471.333 4021.73 468.107 4007.36 468.107C3994.46 468.107 3983.61 470.013 3974.81 473.825C3966.31 477.344 3959.42 481.009 3954.14 484.821C3955.02 490.686 3957.51 499.629 3961.62 511.652C3965.72 523.674 3967.77 535.257 3967.77 546.399C3967.77 551.384 3966.45 557.689 3963.82 565.313C3961.18 572.643 3957.36 578.508 3952.38 582.906C3945.64 588.771 3938.01 593.316 3929.51 596.541C3921.3 599.767 3908.54 601.38 3891.24 601.38C3866.61 601.38 3847.99 595.515 3835.38 583.786C3822.77 571.764 3816.47 556.222 3816.47 537.163C3816.47 520.742 3822.92 506.08 3835.82 493.178C3849.02 479.983 3865 469.133 3883.76 460.63C3902.24 451.833 3923.5 445.089 3947.54 440.397C3971.59 435.412 3993.87 432.92 4014.4 432.92C4042.84 432.92 4068.94 434.679 4092.69 438.198C4116.44 441.423 4137.85 448.314 4156.91 458.87C4175.09 469.133 4189.46 484.088 4200.01 503.734C4210.86 523.088 4216.29 548.452 4216.29 579.827C4216.29 612.962 4215.55 652.255 4214.09 697.705C4212.91 743.156 4212.33 773.065 4212.33 787.434C4212.33 800.629 4214.23 811.039 4218.05 818.663C4222.15 826.286 4228.31 832.004 4236.52 835.816C4241.5 838.162 4249.27 839.628 4259.83 840.215C4270.68 840.508 4280.5 840.655 4289.3 840.655V872.763ZM4070.7 643.605C4054.28 649.176 4038 655.627 4021.87 662.958C4005.75 669.995 3992.55 677.473 3982.29 685.39C3971.44 693.6 3962.94 704.157 3956.78 717.059C3950.62 729.667 3947.54 744.622 3947.54 761.923C3947.54 784.795 3952.67 801.362 3962.94 811.625C3973.49 821.888 3986.39 827.02 4001.64 827.02C4017.77 827.02 4030.96 823.794 4041.23 817.343C4051.78 810.599 4061.02 802.388 4068.94 792.712L4070.7 643.605ZM4838.89 666.916C4838.89 732.893 4817.05 787.58 4773.36 830.978C4729.96 874.376 4674.83 896.075 4607.98 896.075C4582.17 896.075 4559.89 894.169 4541.12 890.357C4522.65 886.838 4506.96 882.44 4494.06 877.162C4480.57 871.59 4469.72 866.166 4461.51 860.888C4453.59 855.316 4447.29 850.771 4442.59 847.252L4379.7 904.432L4353.75 894.316C4355.21 872.91 4356.38 849.745 4357.26 824.82C4358.44 799.603 4359.02 765.735 4359.02 723.216V311.523C4359.02 300.38 4356.68 290.117 4351.99 280.734C4347.59 271.057 4341.58 263.726 4333.95 258.741C4328.38 255.223 4320.17 252.144 4309.32 249.505C4298.77 246.866 4288.94 245.253 4279.85 244.666V212.558L4497.13 201.122L4503.73 208.159V494.058H4506.37C4527.78 473.239 4549.77 457.991 4572.35 448.314C4594.93 438.638 4617.51 433.799 4640.08 433.799C4701.66 433.799 4750.19 454.765 4785.67 496.697C4821.15 538.629 4838.89 595.368 4838.89 666.916ZM4680.99 672.195C4680.99 649.909 4679.23 628.503 4675.71 607.977C4672.49 587.158 4666.91 568.831 4659 552.997C4651.08 537.163 4640.67 524.554 4627.77 515.17C4614.87 505.494 4598.89 500.655 4579.83 500.655C4561.94 500.655 4547.13 503.588 4535.4 509.452C4523.67 515.317 4513.12 523.967 4503.73 535.403V791.392C4505.49 797.257 4508.72 805.027 4513.41 814.704C4518.39 824.087 4523.38 831.418 4528.36 836.696C4535.4 844.32 4542.88 850.185 4550.8 854.29C4558.71 858.102 4569.86 860.008 4584.22 860.008C4614.13 860.008 4637.74 843.734 4655.04 811.185C4672.34 778.343 4680.99 732.013 4680.99 672.195Z" fill="black"/>
<defs>
<linearGradient id="paint0_linear_436_1042" x1="-7.73983e-06" y1="129" x2="1170.5" y2="1080" gradientUnits="userSpaceOnUse">
<stop stop-color="#ED5760"/>
<stop offset="1" stop-color="#B0000B"/>
</linearGradient>
<clipPath id="clip0_436_1042">
<rect width="1080" height="1080" rx="123" fill="white"/>
</clipPath>
</defs>
</svg>
