<svg width="197" height="48" viewBox="0 0 197 48" fill="none" xmlns="http://www.w3.org/2000/svg">
<g clip-path="url(#clip0_444_1074)">
<rect width="48" height="48" rx="5.46667" fill="url(#paint0_linear_444_1074)"/>
<path d="M13.4618 50.5342C12.0268 50.1497 11.4972 49.2563 11.8729 47.8539C12.2618 46.4026 13.8858 45.658 16.7448 45.6201C24.3789 45.5683 30.1029 44.5242 33.9169 42.4875C38.0824 40.248 40.9014 36.3805 42.3739 30.8851C43.1692 27.9173 43.5168 25.5111 43.4167 23.6667C43.333 21.8266 43.1168 20.318 42.7681 19.1409C42.44 17.9519 41.928 16.8622 41.2321 15.8718C39.7437 13.7951 37.54 12.3657 34.6211 11.5836C28.93 10.0587 24.4773 11.9678 21.2628 17.3111C20.1797 19.1356 19.2755 21.4014 18.5502 24.1083C16.8461 30.468 17.3745 35.0838 20.1354 37.9559C20.8034 38.6592 21.6618 39.2387 22.7106 39.6946C23.0269 39.8842 23.2163 40.1883 23.2788 40.6071C23.3932 41.3543 23.3242 41.8077 23.0717 41.9673C22.546 42.2983 21.6516 42.2771 20.3884 41.9037C19.1459 41.5183 18.0205 40.9896 17.0121 40.3174C16.0037 39.6452 15.1244 38.8503 14.374 37.9327C13.6237 37.015 13.0099 36.0116 12.5328 34.9225C12.0556 33.8334 11.7106 32.6748 11.4978 31.4468C11.0647 28.9538 11.1868 26.4435 11.8641 23.916C12.5413 21.3884 13.403 19.2162 14.4492 17.3992C15.516 15.5702 16.7114 14.0117 18.0353 12.7235C19.3799 11.4234 20.8225 10.3769 22.3634 9.58376C23.9248 8.77872 25.5214 8.20156 27.153 7.85226C30.3673 7.14055 33.3769 7.16047 36.1816 7.912C38.9864 8.66354 41.3129 9.73259 43.161 11.1191C45.0298 12.4938 46.5231 14.161 47.6408 16.1209C50.0717 20.3551 50.5509 25.22 49.0784 30.7153C46.9374 38.7057 42.3397 43.9929 35.2855 46.577C32.3644 47.6294 29.0703 48.2149 25.4032 48.3334L27.4779 49.8855C30.1235 51.8178 32.2373 52.9959 33.819 53.4197C37.5533 54.4203 40.3907 54.2019 42.3314 52.7644C42.8946 52.8803 43.2624 53.1711 43.4347 53.6368C43.6027 54.1187 43.5993 54.6858 43.4245 55.3381C43.2497 55.9904 42.8439 56.6244 42.207 57.2403C41.5657 57.8724 40.7713 58.3587 39.8237 58.699C37.7675 59.4588 35.4511 59.4936 32.8746 58.8032C31.244 58.3663 29.7267 57.6364 28.3229 56.6136C26.9148 55.6071 25.8191 54.7717 25.0358 54.1074L22.7021 52.2499C20.9845 50.8983 19.6935 50.1067 18.8292 49.8751C17.9813 49.6479 17.2974 49.5259 16.7776 49.5089C16.2578 49.492 15.8027 49.5273 15.4122 49.615C14.9107 49.7253 14.2606 50.0317 13.4618 50.5342Z" fill="white"/>
<path fill-rule="evenodd" clip-rule="evenodd" d="M21.4065 21.6836C21.0677 22.5903 20.7537 23.5789 20.4662 24.6517C19.8176 27.0724 19.5314 29.1479 19.5608 30.8999C19.6043 33.502 20.3364 35.3237 21.5623 36.5989L21.5641 36.6008L21.5671 36.6039L21.57 36.607L21.5707 36.6077L21.6137 36.6523C21.6582 36.6978 21.6981 36.739 21.7352 36.7772C22.0727 37.1255 22.1759 37.2321 23.3892 38.1943L24.9446 39.1693C26.6456 40.0529 28.4552 40.549 30.4726 40.5652L30.5734 40.5656L30.6981 40.5649L30.8141 40.5633C33.0536 40.5204 35.1894 39.4951 36.6757 37.8192C38.3161 35.9694 39.5679 33.5606 40.3984 30.5231L40.4282 30.4132L40.4331 30.3949C41.1484 27.7252 41.4493 25.6636 41.423 24.1497C39.5216 25.0312 37.4448 25.6819 35.1887 25.768C32.2164 25.8808 29.1795 24.609 26.6661 23.5564L26.5764 23.5188L26.4452 23.464C24.5473 22.6696 22.9056 21.9947 21.4065 21.6836ZM29.959 35.246C30.677 35.246 31.2591 34.6639 31.2591 33.9459C31.2591 33.2279 30.677 32.6459 29.959 32.6459C29.241 32.6459 28.659 33.2279 28.659 33.9459C28.659 34.6639 29.241 35.246 29.959 35.246ZM26.1518 30.3708C26.1518 30.7811 25.8192 31.1137 25.4089 31.1137C24.9986 31.1137 24.666 30.7811 24.666 30.3708C24.666 29.9605 24.9986 29.6279 25.4089 29.6279C25.8192 29.6279 26.1518 29.9605 26.1518 30.3708Z" fill="white"/>
<circle cx="34.9967" cy="21.0155" r="2.25186" fill="white"/>
<circle cx="31.3984" cy="16.7205" r="0.835741" fill="white"/>
<circle cx="28.2411" cy="21.0157" r="1.11432" fill="white"/>
</g>
<path d="M88.8733 21.9341C88.8733 24.4102 88.4172 26.743 87.5049 28.9325C86.5926 31.1089 85.4002 32.9725 83.9275 34.5234C82.937 35.566 81.8293 36.4717 80.6042 37.2406C79.3922 37.9965 78.1346 38.5764 76.8314 38.9805C76.7792 39.1629 76.7466 39.391 76.7336 39.6647C76.7206 39.9383 76.7141 40.1794 76.7141 40.388C76.7141 41.7173 77.0725 42.7468 77.7892 43.4766C78.506 44.2064 79.3922 44.5714 80.4478 44.5714C81.5556 44.5714 82.4027 44.5192 82.9892 44.415C83.5887 44.3237 84.0643 44.2325 84.4162 44.1413L84.0839 45.6074C83.2889 45.855 82.331 46.0701 81.2102 46.2525C80.1025 46.448 79.0338 46.5458 78.0043 46.5458C76.1667 46.5458 74.7462 46.057 73.7427 45.0796C72.7392 44.1022 72.2374 42.6621 72.2374 40.7594C72.2374 40.616 72.2439 40.427 72.257 40.1925C72.27 39.9579 72.2896 39.7689 72.3156 39.6256C69.2269 39.5213 66.7247 38.4461 64.809 36.4C62.9062 34.3539 61.9549 31.7019 61.9549 28.4437C61.9549 25.9155 62.411 23.5696 63.3233 21.4062C64.2355 19.2298 65.4215 17.3532 66.8811 15.7762C68.3538 14.1733 70.0675 12.9091 72.0224 11.9838C73.9903 11.0585 76.0103 10.5959 78.0825 10.5959C81.2624 10.5959 83.8558 11.6254 85.8628 13.6845C87.8698 15.7306 88.8733 18.4805 88.8733 21.9341ZM84.2794 20.8002C84.2794 18.1938 83.7255 16.1151 82.6177 14.5642C81.51 13.0134 79.8809 12.238 77.7306 12.238C76.0624 12.238 74.5116 12.7332 73.078 13.7236C71.6445 14.7141 70.3933 16.1672 69.3247 18.083C68.3994 19.7642 67.7022 21.6148 67.233 23.6348C66.7769 25.6548 66.5488 27.5575 66.5488 29.343C66.5488 32.0798 67.1092 34.2106 68.23 35.7354C69.3638 37.2602 70.9798 38.0226 73.078 38.0226C74.8635 38.0226 76.4664 37.4882 77.887 36.4196C79.3075 35.3509 80.4804 34.0021 81.4057 32.373C82.331 30.757 83.0413 28.9325 83.5365 26.8994C84.0318 24.8664 84.2794 22.8333 84.2794 20.8002ZM102.665 36.2632H102.548C101.948 36.7454 101.375 37.1885 100.828 37.5925C100.28 37.9965 99.7395 38.3353 99.2051 38.609C98.5796 38.9218 98.0127 39.1434 97.5044 39.2737C96.9961 39.417 96.3315 39.4887 95.5104 39.4887C94.2593 39.4887 93.2884 39.1303 92.5977 38.4135C91.907 37.6837 91.5616 36.7324 91.5616 35.5594C91.5616 35.2467 91.5877 34.8752 91.6398 34.4452C91.6919 34.0151 91.8158 33.3765 92.0112 32.5294L93.536 26.3325C93.6664 25.7591 93.7706 25.2508 93.8488 24.8077C93.94 24.3646 93.9857 23.9411 93.9857 23.537C93.9857 22.8072 93.8618 22.325 93.6142 22.0905C93.3796 21.8428 92.8909 21.719 92.1481 21.719C91.8614 21.719 91.4965 21.7712 91.0534 21.8754C90.6103 21.9797 90.2649 22.0644 90.0173 22.1295L90.3105 20.8784C91.327 20.4223 92.2198 20.0769 92.9887 19.8424C93.7706 19.6078 94.3962 19.4905 94.8653 19.4905C95.9079 19.4905 96.6703 19.7381 97.1525 20.2333C97.6478 20.7155 97.8954 21.4062 97.8954 22.3055C97.8954 22.5401 97.8693 22.8594 97.8172 23.2634C97.765 23.6674 97.6869 24.0714 97.5826 24.4754L95.8428 31.7084C95.7124 32.2557 95.6017 32.7705 95.5104 33.2527C95.4322 33.7219 95.3932 34.0803 95.3932 34.3279C95.3932 35.2011 95.5821 35.8918 95.9601 36.4C96.338 36.9083 96.9375 37.1624 97.7585 37.1624C98.5926 37.1624 99.4462 36.9474 100.319 36.5173C101.206 36.0742 102.092 35.4096 102.978 34.5234L106.399 19.8033L109.8 19.5687L110.035 19.8619L107.122 32.4512C106.992 32.9855 106.875 33.5264 106.77 34.0737C106.666 34.6081 106.614 34.986 106.614 35.2076C106.614 35.9504 106.77 36.4587 107.083 36.7324C107.409 36.993 107.943 37.1233 108.686 37.1233C108.934 37.1233 109.286 37.0842 109.742 37.006C110.198 36.9278 110.55 36.8431 110.797 36.7519L110.504 38.003C109.423 38.4461 108.517 38.7784 107.787 39C107.07 39.2216 106.406 39.3323 105.793 39.3323C104.737 39.3323 103.949 39.0261 103.428 38.4135C102.919 37.801 102.665 37.0842 102.665 36.2632ZM122.244 36.8692L121.95 38.1203C120.751 38.6025 119.793 38.9348 119.077 39.1173C118.36 39.3128 117.747 39.4105 117.239 39.4105C116.197 39.4105 115.415 39.1434 114.893 38.609C114.372 38.0617 114.111 37.3905 114.111 36.5955C114.111 36.2958 114.137 35.983 114.19 35.6572C114.242 35.3314 114.326 34.9209 114.444 34.4256L116.516 26.1175C116.62 25.6613 116.718 25.1726 116.809 24.6513C116.913 24.13 116.965 23.6869 116.965 23.322C116.965 22.5922 116.842 22.11 116.594 21.8754C116.359 21.6278 115.871 21.504 115.128 21.504C114.841 21.504 114.457 21.5496 113.974 21.6408C113.505 21.7321 113.147 21.8103 112.899 21.8754L113.193 20.6243C114.209 20.1682 115.121 19.8293 115.929 19.6078C116.737 19.3862 117.376 19.2755 117.845 19.2755C118.914 19.2755 119.689 19.5296 120.171 20.0378C120.654 20.5461 120.895 21.2303 120.895 22.0905C120.895 22.325 120.869 22.6443 120.817 23.0483C120.764 23.4523 120.686 23.8563 120.582 24.2603L118.49 32.5685C118.36 33.0768 118.243 33.5785 118.138 34.0737C118.047 34.5559 118.002 34.9534 118.002 35.2662C118.002 36.0091 118.164 36.5173 118.49 36.791C118.829 37.0647 119.37 37.2015 120.113 37.2015C120.36 37.2015 120.712 37.1689 121.168 37.1038C121.638 37.0386 121.996 36.9604 122.244 36.8692ZM123.632 11.8861C123.632 12.6289 123.39 13.2805 122.908 13.8409C122.426 14.3883 121.827 14.662 121.11 14.662C120.445 14.662 119.872 14.4013 119.389 13.88C118.907 13.3457 118.666 12.7397 118.666 12.062C118.666 11.3452 118.907 10.7197 119.389 10.1853C119.872 9.65102 120.445 9.38385 121.11 9.38385C121.853 9.38385 122.459 9.63799 122.928 10.1462C123.397 10.6415 123.632 11.2214 123.632 11.8861ZM131.696 39.5474C129.415 39.5474 127.61 38.8827 126.281 37.5534C124.964 36.2241 124.306 34.3344 124.306 31.8843C124.306 30.2553 124.554 28.6979 125.049 27.2122C125.557 25.7135 126.261 24.3842 127.16 23.2243C128.06 22.0644 129.193 21.1195 130.562 20.3897C131.943 19.6469 133.475 19.2755 135.156 19.2755C137.019 19.2755 138.433 19.6729 139.398 20.4679C140.375 21.2499 140.864 22.2403 140.864 23.4393C140.864 24.3385 140.649 25.127 140.219 25.8047C139.802 26.4824 139.17 26.8212 138.323 26.8212C137.619 26.8212 137.091 26.6453 136.739 26.2934C136.387 25.9415 136.211 25.5506 136.211 25.1205C136.211 24.7034 136.355 24.1365 136.642 23.4198C136.928 22.6899 137.156 22.1035 137.326 21.6604C137.182 21.3085 136.863 21.0544 136.368 20.898C135.873 20.7286 135.358 20.6439 134.823 20.6439C133.051 20.6439 131.52 21.6799 130.23 23.7521C128.952 25.8112 128.314 28.3395 128.314 31.3369C128.314 33.1875 128.724 34.6602 129.545 35.7549C130.379 36.8366 131.5 37.3775 132.908 37.3775C134.172 37.3775 135.293 37.0386 136.27 36.3609C137.261 35.6833 138.205 34.7254 139.105 33.4873L140.219 34.3083C139.32 35.7289 138.095 36.9604 136.544 38.003C135.006 39.0326 133.39 39.5474 131.696 39.5474ZM152.506 9.03198L147.052 32.5685C146.934 33.0637 146.823 33.559 146.719 34.0542C146.615 34.5494 146.563 34.9534 146.563 35.2662C146.563 36.0091 146.726 36.5173 147.052 36.791C147.39 37.0647 147.931 37.2015 148.674 37.2015C148.935 37.2015 149.319 37.1689 149.827 37.1038C150.349 37.0386 150.74 36.9604 151 36.8692L150.707 38.1203C149.534 38.5895 148.628 38.9218 147.99 39.1173C147.364 39.3128 146.654 39.4105 145.859 39.4105C144.816 39.4105 144.021 39.1434 143.474 38.609C142.94 38.0617 142.673 37.3905 142.673 36.5955C142.673 36.2958 142.699 35.983 142.751 35.6572C142.816 35.3314 142.901 34.9209 143.005 34.4256L147.755 13.8409C147.847 13.4369 147.905 13.1567 147.931 13.0003C147.97 12.844 147.99 12.6485 147.99 12.4139C147.99 11.9447 147.912 11.5863 147.755 11.3387C147.599 11.0781 147.377 10.8826 147.091 10.7523C146.817 10.635 146.472 10.5568 146.055 10.5177C145.638 10.4786 145.214 10.433 144.784 10.3808L145.058 9.18837L152.31 8.73875L152.506 9.03198ZM165.398 36.4196H165.261C164.975 36.6542 164.629 36.9539 164.225 37.3188C163.834 37.6707 163.372 38.0095 162.837 38.3353C162.329 38.6612 161.775 38.9414 161.176 39.1759C160.576 39.4236 159.925 39.5474 159.221 39.5474C157.331 39.5474 155.846 38.8697 154.764 37.5143C153.695 36.1589 153.161 34.3083 153.161 31.9625C153.161 30.3465 153.461 28.7761 154.06 27.2513C154.66 25.7265 155.487 24.3581 156.543 23.1461C157.546 21.9862 158.739 21.0544 160.12 20.3506C161.502 19.6338 162.922 19.2755 164.382 19.2755C165.307 19.2755 166.187 19.3993 167.021 19.6469C167.868 19.8945 168.533 20.1747 169.015 20.4875L172.592 19.5687L172.827 19.8619L169.855 32.4708C169.751 32.8748 169.64 33.37 169.523 33.9565C169.419 34.5299 169.367 34.9534 169.367 35.2271C169.367 35.97 169.523 36.4717 169.836 36.7324C170.149 36.993 170.676 37.1233 171.419 37.1233C171.667 37.1233 172.019 37.0842 172.475 37.006C172.931 36.9278 173.283 36.8431 173.531 36.7519L173.237 38.003C172.064 38.4722 171.191 38.811 170.618 39.0195C170.044 39.2281 169.347 39.3323 168.526 39.3323C167.588 39.3323 166.845 39.0586 166.298 38.5113C165.75 37.9639 165.45 37.2667 165.398 36.4196ZM168.194 24.0649C168.194 23.6348 168.148 23.2243 168.057 22.8333C167.966 22.4423 167.777 22.0774 167.49 21.7386C167.229 21.4128 166.871 21.1521 166.415 20.9566C165.959 20.7611 165.385 20.6634 164.695 20.6634C163.743 20.6634 162.818 20.9762 161.919 21.6017C161.019 22.2273 160.211 23.0679 159.495 24.1235C158.817 25.114 158.263 26.313 157.833 27.7205C157.403 29.128 157.188 30.555 157.188 32.0016C157.188 32.7966 157.233 33.5003 157.325 34.1128C157.416 34.7254 157.592 35.2858 157.853 35.794C158.1 36.2893 158.459 36.6737 158.928 36.9474C159.397 37.2211 159.99 37.3579 160.707 37.3579C161.436 37.3579 162.199 37.1559 162.994 36.7519C163.802 36.3349 164.708 35.6116 165.711 34.582L168.194 24.0649ZM195.142 26.743C195.142 28.4763 194.829 30.138 194.204 31.7279C193.578 33.3048 192.75 34.6667 191.721 35.8136C190.665 36.9865 189.473 37.9118 188.143 38.5895C186.814 39.2541 185.407 39.5865 183.921 39.5865C182.8 39.5865 181.81 39.4887 180.95 39.2932C180.102 39.1108 179.379 38.8566 178.78 38.5308C178.167 38.192 177.659 37.8141 177.255 37.397C176.851 36.9669 176.486 36.4913 176.16 35.97L181.204 13.8409C181.269 13.5412 181.321 13.2871 181.36 13.0785C181.412 12.857 181.438 12.6354 181.438 12.4139C181.438 11.9447 181.36 11.5863 181.204 11.3387C181.047 11.0781 180.826 10.8826 180.539 10.7523C180.265 10.635 179.92 10.5568 179.503 10.5177C179.086 10.4786 178.662 10.433 178.232 10.3808L178.506 9.18837L185.759 8.73875L185.954 9.03198L182.983 22.0318H183.061C184.234 20.9892 185.263 20.2724 186.15 19.8815C187.049 19.4775 187.922 19.2755 188.769 19.2755C190.75 19.2755 192.307 19.9531 193.441 21.3085C194.575 22.6508 195.142 24.4623 195.142 26.743ZM191.115 26.8408C191.115 26.15 191.05 25.4593 190.919 24.7686C190.802 24.0649 190.6 23.4784 190.313 23.0092C190.014 22.514 189.603 22.123 189.082 21.8363C188.561 21.5496 187.915 21.4062 187.147 21.4062C186.69 21.4062 186.26 21.4844 185.856 21.6408C185.452 21.7972 185.035 22.0057 184.605 22.2664C184.227 22.501 183.856 22.7877 183.491 23.1265C183.139 23.4523 182.813 23.7456 182.513 24.0062L179.914 35.5985C179.953 35.8592 180.07 36.1459 180.265 36.4587C180.461 36.7715 180.709 37.0451 181.008 37.2797C181.373 37.5795 181.784 37.8075 182.24 37.9639C182.696 38.1203 183.198 38.1985 183.745 38.1985C184.775 38.1985 185.739 37.8988 186.638 37.2993C187.551 36.6867 188.332 35.8657 188.984 34.8361C189.701 33.7154 190.235 32.4642 190.587 31.0828C190.939 29.7014 191.115 28.2874 191.115 26.8408Z" fill="black"/>
<defs>
<linearGradient id="paint0_linear_444_1074" x1="-3.43992e-07" y1="5.73333" x2="52.0222" y2="48" gradientUnits="userSpaceOnUse">
<stop stop-color="#ED5760"/>
<stop offset="1" stop-color="#B0000B"/>
</linearGradient>
<clipPath id="clip0_444_1074">
<rect width="48" height="48" rx="5.46667" fill="white"/>
</clipPath>
</defs>
</svg>
