<svg width="4422" height="1080" viewBox="0 0 4422 1080" fill="none" xmlns="http://www.w3.org/2000/svg">
<g clip-path="url(#clip0_436_1042)">
<rect width="1080" height="1080" rx="123" fill="url(#paint0_linear_436_1042)"/>
<path d="M302.89 1137.03C270.603 1128.38 258.687 1108.27 267.141 1076.72C275.891 1044.07 312.43 1027.31 376.757 1026.46C548.524 1025.29 677.315 1001.8 763.131 955.977C856.855 905.587 920.282 818.569 953.413 694.923C971.306 628.146 979.127 574.008 976.877 532.507C974.993 491.105 970.128 457.162 962.281 430.678C954.899 403.926 943.38 379.407 927.722 357.123C894.233 310.398 844.65 278.236 778.974 260.638C650.925 226.328 550.738 269.284 478.414 389.507C454.043 430.559 433.698 481.539 417.378 542.444C379.037 685.537 390.927 789.393 453.047 854.014C468.076 869.839 487.39 882.879 510.989 893.135C518.104 897.401 522.366 904.245 523.774 913.666C526.347 930.479 524.794 940.68 519.113 944.27C507.286 951.719 487.161 951.242 458.74 942.84C430.783 934.169 405.461 922.272 382.772 907.148C360.084 892.024 340.299 874.139 323.416 853.492C306.533 832.845 292.724 810.269 281.987 785.764C271.25 761.259 263.488 735.191 258.701 707.561C248.957 651.468 251.704 594.987 266.942 538.117C282.18 481.247 301.568 432.371 325.107 391.489C349.11 350.338 376.006 315.27 405.794 286.287C436.047 257.035 468.507 233.486 503.175 215.642C538.309 197.529 574.231 184.542 610.943 176.683C683.265 160.67 750.98 161.118 814.087 178.027C877.194 194.937 929.539 218.991 971.122 250.188C1013.17 281.117 1046.77 318.63 1071.92 362.727C1126.61 457.998 1137.39 567.456 1104.26 691.103C1056.09 870.885 952.644 989.847 793.924 1047.99C728.199 1071.67 654.082 1084.84 571.572 1087.51L618.252 1122.43C677.78 1165.91 725.338 1192.42 760.928 1201.95C844.949 1224.46 908.792 1219.55 952.457 1187.21C965.128 1189.82 973.403 1196.36 977.281 1206.83C981.06 1217.68 980.984 1230.44 977.051 1245.11C973.119 1259.79 963.988 1274.06 949.657 1287.91C935.228 1302.14 917.354 1313.08 896.033 1320.73C849.768 1337.83 797.65 1338.61 739.679 1323.08C702.989 1313.25 668.851 1296.83 637.266 1273.81C605.582 1251.17 580.929 1232.37 563.305 1217.42L510.798 1175.63C472.15 1145.22 443.104 1127.41 423.658 1122.2C404.579 1117.09 389.192 1114.34 377.497 1113.96C365.801 1113.58 355.56 1114.37 346.774 1116.34C335.491 1118.83 320.863 1125.72 302.89 1137.03Z" fill="white"/>
<path fill-rule="evenodd" clip-rule="evenodd" d="M481.646 487.887C474.024 508.287 466.958 530.531 460.49 554.669C445.896 609.136 439.458 655.833 440.117 695.253C441.097 753.802 457.569 794.788 485.152 823.482L485.193 823.525L485.261 823.594L485.326 823.663L485.34 823.679L486.308 824.682C487.31 825.707 488.207 826.633 489.041 827.494C496.635 835.33 498.959 837.727 526.257 859.377L561.253 881.315C599.526 901.196 640.242 912.359 685.634 912.722L687.901 912.731L690.707 912.717L693.316 912.679C743.706 911.714 791.763 888.646 825.203 850.939C862.113 809.318 890.278 755.12 908.963 686.775L909.634 684.302L909.744 683.891C925.839 623.824 932.609 577.438 932.018 543.374C889.236 563.208 842.508 577.848 791.746 579.787C724.87 582.324 656.539 553.708 599.988 530.025L597.969 529.18L595.018 527.946C552.315 510.071 515.377 494.886 481.646 487.887ZM674.078 793.04C690.233 793.04 703.329 779.944 703.329 763.789C703.329 747.634 690.233 734.538 674.078 734.538C657.923 734.538 644.827 747.634 644.827 763.789C644.827 779.944 657.923 793.04 674.078 793.04ZM588.415 683.349C588.415 692.581 580.931 700.064 571.7 700.064C562.469 700.064 554.985 692.581 554.985 683.349C554.985 674.118 562.469 666.634 571.7 666.634C580.931 666.634 588.415 674.118 588.415 683.349Z" fill="white"/>
<circle cx="787.426" cy="472.848" r="50.6668" fill="white"/>
<circle cx="706.463" cy="376.214" r="18.8042" fill="white"/>
<circle cx="635.425" cy="472.848" r="25.0722" fill="white"/>
</g>
<path d="M1999.65 498.016C1999.65 553.73 1989.39 606.218 1968.86 655.48C1948.33 704.45 1921.5 746.382 1888.37 781.276C1866.08 804.734 1841.16 825.114 1813.6 842.414C1786.32 859.421 1758.03 872.47 1728.71 881.56C1727.53 885.665 1726.8 890.797 1726.51 896.955C1726.21 903.112 1726.07 908.537 1726.07 913.229C1726.07 943.138 1734.13 966.303 1750.26 982.724C1766.39 999.145 1786.32 1007.36 1810.08 1007.36C1835 1007.36 1854.06 1006.18 1867.26 1003.84C1880.74 1001.78 1891.45 999.732 1899.36 997.679L1891.89 1030.67C1874 1036.24 1852.45 1041.08 1827.23 1045.18C1802.31 1049.58 1778.26 1051.78 1755.1 1051.78C1713.75 1051.78 1681.79 1040.78 1659.21 1018.79C1636.63 996.799 1625.34 964.397 1625.34 921.586C1625.34 918.36 1625.49 914.109 1625.78 908.83C1626.08 903.552 1626.52 899.301 1627.1 896.075C1557.61 893.729 1501.31 869.538 1458.2 823.501C1415.39 777.464 1393.98 717.792 1393.98 644.484C1393.98 587.598 1404.25 534.817 1424.77 486.141C1445.3 437.171 1471.98 394.946 1504.82 359.466C1537.96 323.398 1576.52 294.955 1620.5 274.136C1664.78 253.317 1710.23 242.907 1756.86 242.907C1828.4 242.907 1886.76 266.072 1931.91 312.402C1977.07 358.439 1999.65 420.311 1999.65 498.016ZM1896.29 472.505C1896.29 413.86 1883.82 367.09 1858.9 332.195C1833.97 297.301 1797.32 279.854 1748.94 279.854C1711.4 279.854 1676.51 290.997 1644.26 313.282C1612 335.567 1583.85 368.263 1559.81 411.367C1538.99 449.194 1523.3 490.832 1512.74 536.283C1502.48 581.733 1497.35 624.545 1497.35 664.717C1497.35 726.295 1509.96 774.238 1535.17 808.546C1560.69 842.854 1597.05 860.008 1644.26 860.008C1684.43 860.008 1720.5 847.985 1752.46 823.941C1784.42 799.896 1810.81 769.547 1831.63 732.893C1852.45 696.533 1868.43 655.48 1879.57 609.737C1890.71 563.993 1896.29 518.249 1896.29 472.505ZM2309.97 820.422H2307.33C2293.84 831.271 2280.94 841.241 2268.62 850.331C2256.31 859.421 2244.14 867.045 2232.12 873.203C2218.04 880.241 2205.28 885.226 2193.85 888.158C2182.41 891.383 2167.46 892.996 2148.98 892.996C2120.83 892.996 2098.99 884.932 2083.45 868.805C2067.91 852.384 2060.14 830.978 2060.14 804.588C2060.14 797.55 2060.72 789.193 2061.9 779.516C2063.07 769.84 2065.85 755.472 2070.25 736.412L2104.56 596.981C2107.49 584.079 2109.84 572.643 2111.6 562.673C2113.65 552.704 2114.68 543.174 2114.68 534.084C2114.68 517.663 2111.89 506.813 2106.32 501.535C2101.04 495.964 2090.05 493.178 2073.33 493.178C2066.88 493.178 2058.67 494.351 2048.7 496.697C2038.73 499.043 2030.96 500.949 2025.39 502.415L2031.99 474.265C2054.86 464.002 2074.94 456.231 2092.25 450.953C2109.84 445.675 2123.91 443.036 2134.47 443.036C2157.93 443.036 2175.08 448.607 2185.93 459.75C2197.07 470.599 2202.65 486.141 2202.65 506.373C2202.65 511.652 2202.06 518.836 2200.89 527.926C2199.71 537.016 2197.95 546.106 2195.61 555.196L2156.46 717.938C2153.53 730.254 2151.04 741.836 2148.98 752.686C2147.23 763.242 2146.35 771.306 2146.35 776.877C2146.35 796.524 2150.6 812.065 2159.1 823.501C2167.6 834.937 2181.09 840.655 2199.57 840.655C2218.33 840.655 2237.54 835.816 2257.19 826.14C2277.13 816.17 2297.07 801.215 2317.01 781.276L2393.98 450.073L2470.51 444.795L2475.79 451.393L2410.25 734.652C2407.32 746.675 2404.68 758.844 2402.33 771.159C2399.99 783.182 2398.82 791.685 2398.82 796.67C2398.82 813.384 2402.33 824.82 2409.37 830.978C2416.7 836.843 2428.73 839.775 2445.44 839.775C2451.01 839.775 2458.93 838.895 2469.19 837.136C2479.45 835.377 2487.37 833.471 2492.94 831.418L2486.35 859.568C2462.01 869.538 2441.63 877.015 2425.21 882C2409.08 886.985 2394.12 889.477 2380.34 889.477C2356.59 889.477 2338.85 882.586 2327.12 868.805C2315.69 855.023 2309.97 838.895 2309.97 820.422ZM2750.48 834.057L2743.88 862.207C2716.91 873.057 2695.35 880.534 2679.23 884.639C2663.1 889.037 2649.32 891.237 2637.88 891.237C2614.42 891.237 2596.83 885.226 2585.1 873.203C2573.37 860.888 2567.51 845.786 2567.51 827.899C2567.51 821.155 2568.09 814.117 2569.26 806.787C2570.44 799.456 2572.34 790.219 2574.98 779.077L2621.61 592.143C2623.95 581.88 2626.15 570.884 2628.2 559.155C2630.55 547.426 2631.72 537.456 2631.72 529.245C2631.72 512.824 2628.94 501.975 2623.37 496.697C2618.09 491.126 2607.09 488.34 2590.38 488.34C2583.93 488.34 2575.28 489.366 2564.43 491.419C2553.87 493.471 2545.81 495.231 2540.23 496.697L2546.83 468.547C2569.7 458.284 2590.23 450.66 2608.41 445.675C2626.59 440.69 2640.96 438.198 2651.52 438.198C2675.56 438.198 2693.01 443.916 2703.86 455.352C2714.71 466.788 2720.13 482.182 2720.13 501.535C2720.13 506.813 2719.54 513.997 2718.37 523.088C2717.2 532.178 2715.44 541.268 2713.09 550.358L2666.03 737.291C2663.1 748.727 2660.46 760.017 2658.11 771.159C2656.06 782.009 2655.03 790.952 2655.03 797.99C2655.03 814.704 2658.7 826.14 2666.03 832.298C2673.65 838.455 2685.82 841.534 2702.54 841.534C2708.11 841.534 2716.03 840.801 2726.29 839.335C2736.84 837.869 2744.91 836.11 2750.48 834.057ZM2781.71 271.937C2781.71 288.651 2776.28 303.312 2765.43 315.921C2754.59 328.237 2741.1 334.395 2724.97 334.395C2710.01 334.395 2697.11 328.53 2686.26 316.801C2675.41 304.778 2669.99 291.143 2669.99 275.895C2669.99 259.768 2675.41 245.693 2686.26 233.67C2697.11 221.648 2710.01 215.637 2724.97 215.637C2741.68 215.637 2755.32 221.355 2765.87 232.791C2776.43 243.933 2781.71 256.982 2781.71 271.937ZM2963.15 894.316C2911.84 894.316 2871.23 879.361 2841.32 849.452C2811.7 819.542 2796.89 777.024 2796.89 721.897C2796.89 685.243 2802.46 650.202 2813.61 616.774C2825.04 583.053 2840.88 553.143 2861.11 527.046C2881.34 500.949 2906.85 479.69 2937.64 463.269C2968.72 446.555 3003.18 438.198 3041.01 438.198C3082.94 438.198 3114.75 447.141 3136.45 465.028C3158.44 482.622 3169.44 504.907 3169.44 531.884C3169.44 552.117 3164.6 569.858 3154.93 585.105C3145.54 600.353 3131.32 607.977 3112.26 607.977C3096.43 607.977 3084.55 604.019 3076.63 596.102C3068.72 588.184 3064.76 579.388 3064.76 569.711C3064.76 560.328 3067.98 547.572 3074.43 531.445C3080.88 515.024 3086.02 501.828 3089.83 491.859C3086.6 483.941 3079.42 478.223 3068.28 474.705C3057.13 470.893 3045.55 468.987 3033.53 468.987C2993.65 468.987 2959.19 492.298 2930.17 538.922C2901.43 585.252 2887.06 642.139 2887.06 709.581C2887.06 751.22 2896.3 784.355 2914.77 808.986C2933.54 833.324 2958.75 845.493 2990.42 845.493C3018.87 845.493 3044.08 837.869 3066.08 822.621C3088.36 807.373 3109.62 785.821 3129.85 757.964L3154.93 776.438C3134.69 808.399 3107.13 836.11 3072.23 859.568C3037.63 882.733 3001.27 894.316 2963.15 894.316ZM3431.38 207.72L3308.66 737.291C3306.02 748.434 3303.53 759.577 3301.18 770.72C3298.84 781.862 3297.66 790.952 3297.66 797.99C3297.66 814.704 3301.33 826.14 3308.66 832.298C3316.28 838.455 3328.45 841.534 3345.17 841.534C3351.03 841.534 3359.68 840.801 3371.12 839.335C3382.85 837.869 3391.64 836.11 3397.51 834.057L3390.91 862.207C3364.52 872.763 3344.14 880.241 3329.77 884.639C3315.7 889.037 3299.72 891.237 3281.83 891.237C3258.37 891.237 3240.48 885.226 3228.17 873.203C3216.15 860.888 3210.13 845.786 3210.13 827.899C3210.13 821.155 3210.72 814.117 3211.89 806.787C3213.36 799.456 3215.27 790.219 3217.61 779.077L3324.49 315.921C3326.55 306.831 3327.87 300.527 3328.45 297.008C3329.33 293.489 3329.77 289.091 3329.77 283.813C3329.77 273.256 3328.01 265.192 3324.49 259.621C3320.97 253.757 3315.99 249.358 3309.54 246.426C3303.38 243.787 3295.61 242.027 3286.23 241.148C3276.84 240.268 3267.31 239.242 3257.64 238.069L3263.8 211.238L3426.98 201.122L3431.38 207.72ZM3721.46 823.941H3718.38C3711.93 829.219 3704.16 835.963 3695.07 844.173C3686.27 852.091 3675.86 859.715 3663.84 867.045C3652.41 874.376 3639.94 880.68 3626.46 885.959C3612.97 891.53 3598.31 894.316 3582.47 894.316C3539.95 894.316 3506.52 879.068 3482.19 848.572C3458.14 818.076 3446.12 776.438 3446.12 723.656C3446.12 687.296 3452.86 651.962 3466.35 617.654C3479.84 583.346 3498.46 552.557 3522.21 525.287C3544.79 499.189 3571.62 478.223 3602.7 462.389C3633.79 446.261 3665.75 438.198 3698.59 438.198C3719.41 438.198 3739.2 440.983 3757.97 446.555C3777.03 452.126 3791.98 458.43 3802.83 465.468L3883.32 444.795L3888.6 451.393L3821.75 735.092C3819.4 744.182 3816.91 755.325 3814.27 768.52C3811.92 781.422 3810.75 790.952 3810.75 797.11C3810.75 813.824 3814.27 825.114 3821.31 830.978C3828.34 836.843 3840.22 839.775 3856.93 839.775C3862.5 839.775 3870.42 838.895 3880.69 837.136C3890.95 835.377 3898.87 833.471 3904.44 831.418L3897.84 859.568C3871.45 870.124 3851.8 877.748 3838.9 882.44C3826 887.132 3810.31 889.477 3791.84 889.477C3770.72 889.477 3754.01 883.32 3741.69 871.004C3729.38 858.688 3722.63 843.001 3721.46 823.941ZM3784.36 545.959C3784.36 536.283 3783.33 527.046 3781.28 518.249C3779.23 509.452 3774.98 501.242 3768.52 493.618C3762.66 486.287 3754.6 480.423 3744.33 476.024C3734.07 471.626 3721.17 469.427 3705.63 469.427C3684.22 469.427 3663.4 476.464 3643.17 490.539C3622.94 504.614 3604.76 523.527 3588.63 547.279C3573.38 569.564 3560.92 596.541 3551.24 628.21C3541.57 659.879 3536.73 691.988 3536.73 724.536C3536.73 742.423 3537.75 758.257 3539.81 772.039C3541.86 785.821 3545.82 798.43 3551.68 809.866C3557.25 821.008 3565.32 829.659 3575.87 835.816C3586.43 841.974 3599.77 845.053 3615.9 845.053C3632.32 845.053 3649.47 840.508 3667.36 831.418C3685.54 822.035 3705.92 805.76 3728.5 782.595L3784.36 545.959ZM4390.69 606.218C4390.69 645.217 4383.65 682.604 4369.58 718.378C4355.5 753.859 4336.88 784.501 4313.72 810.305C4289.97 836.696 4263.14 857.515 4233.23 872.763C4203.32 887.718 4171.65 895.195 4138.22 895.195C4113 895.195 4090.72 892.996 4071.37 888.598C4052.31 884.492 4036.03 878.774 4022.54 871.444C4008.76 863.82 3997.33 855.316 3988.24 845.933C3979.15 836.256 3970.93 825.553 3963.6 813.824L4077.08 315.921C4078.55 309.177 4079.72 303.459 4080.6 298.767C4081.78 293.782 4082.36 288.797 4082.36 283.813C4082.36 273.256 4080.6 265.192 4077.08 259.621C4073.57 253.757 4068.58 249.358 4062.13 246.426C4055.97 243.787 4048.2 242.027 4038.82 241.148C4029.43 240.268 4019.9 239.242 4010.23 238.069L4016.39 211.238L4179.57 201.122L4183.97 207.72L4117.11 500.216H4118.87C4145.26 476.757 4168.42 460.63 4188.36 451.833C4208.6 442.743 4228.24 438.198 4247.3 438.198C4291.87 438.198 4326.92 453.446 4352.43 483.941C4377.94 514.144 4390.69 554.903 4390.69 606.218ZM4300.08 608.417C4300.08 592.876 4298.62 577.335 4295.69 561.794C4293.05 545.959 4288.5 532.764 4282.05 522.208C4275.31 511.065 4266.07 502.268 4254.34 495.817C4242.61 489.366 4228.1 486.141 4210.8 486.141C4200.53 486.141 4190.86 487.9 4181.77 491.419C4172.68 494.938 4163.29 499.629 4153.62 505.494C4145.11 510.772 4136.76 517.223 4128.55 524.847C4120.63 532.178 4113.3 538.775 4106.55 544.64L4048.05 805.467C4048.93 811.332 4051.57 817.783 4055.97 824.82C4060.37 831.858 4065.94 838.016 4072.69 843.294C4080.9 850.038 4090.13 855.17 4100.4 858.688C4110.66 862.207 4121.95 863.966 4134.26 863.966C4157.43 863.966 4179.13 857.222 4199.36 843.734C4219.89 829.952 4237.48 811.478 4252.14 788.313C4268.27 763.096 4280.29 734.946 4288.21 703.863C4296.13 672.781 4300.08 640.966 4300.08 608.417Z" fill="black"/>
<defs>
<linearGradient id="paint0_linear_436_1042" x1="-7.73983e-06" y1="129" x2="1170.5" y2="1080" gradientUnits="userSpaceOnUse">
<stop stop-color="#ED5760"/>
<stop offset="1" stop-color="#B0000B"/>
</linearGradient>
<clipPath id="clip0_436_1042">
<rect width="1080" height="1080" rx="123" fill="white"/>
</clipPath>
</defs>
</svg>
