<svg width="56" height="41" viewBox="0 0 56 41" fill="none" xmlns="http://www.w3.org/2000/svg">
<path d="M0.52 34.48H0.84C1.34667 34.48 1.69333 34.3867 1.88 34.2C2.06667 34.0133 2.16 33.6667 2.16 33.16V0.159998H8.96V33.24C8.96 34.9733 8.70667 36.3333 8.2 37.32C7.69333 38.3333 6.86667 39.0667 5.72 39.52C4.6 39.9733 3.04 40.2 1.04 40.2H0.52V34.48ZM19.2578 0.159998C21.0978 0.159998 22.6578 0.546665 23.9378 1.32C25.2445 2.09333 26.2311 3.17333 26.8978 4.56C27.5645 5.92 27.8978 7.52 27.8978 9.36V23.8C27.8978 25.6133 27.5645 27.2133 26.8978 28.6C26.2311 29.9867 25.2445 31.0667 23.9378 31.84C22.6311 32.6133 21.0711 33 19.2578 33H11.5378V0.159998H19.2578ZM21.1378 8.84C21.1378 7.10667 20.5245 6.24 19.2978 6.24H18.0978V26.92H19.2978C20.5245 26.92 21.1378 26.0533 21.1378 24.32V8.84ZM30.2097 0.159998H36.8897V33H30.2097V0.159998ZM46.9875 0.159998C48.8275 0.159998 50.3875 0.519999 51.6675 1.24C52.9742 1.93333 53.9608 2.90667 54.6275 4.16C55.2942 5.41333 55.6275 6.88 55.6275 8.56V15.52C55.6275 17.1733 55.2942 18.64 54.6275 19.92C53.9608 21.1733 52.9742 22.1467 51.6675 22.84C50.3608 23.5333 48.8008 23.88 46.9875 23.88H46.1475V33H39.4675V0.159998H46.9875ZM48.8275 8.36C48.8275 7 48.2142 6.32 46.9875 6.32H46.1475V17.76H46.9875C48.2142 17.76 48.8275 17.0667 48.8275 15.68V8.36Z" fill="#223027"/>
</svg>
